<mxfile host="app.diagrams.net" agent="Mozilla/5.0 (Windows NT 10.0; Win64; x64) AppleWebKit/537.36 (KHTML, like Gecko) Chrome/124.0.0.0 Safari/537.36" version="24.8.3">
  <diagram name="Page-1" id="WEumPWF51KtZB34_E9Jc">
    <mxGraphModel dx="3500" dy="1740" grid="1" gridSize="10" guides="1" tooltips="1" connect="1" arrows="1" fold="1" page="1" pageScale="1" pageWidth="850" pageHeight="1100" math="0" shadow="0">
      <root>
        <mxCell id="0" />
        <mxCell id="1" parent="0" />
        <mxCell id="e3aWR5k-ecryU7DG6mbs-11" value="" style="edgeStyle=orthogonalEdgeStyle;rounded=0;orthogonalLoop=1;jettySize=auto;html=1;" edge="1" parent="1" source="e3aWR5k-ecryU7DG6mbs-1" target="e3aWR5k-ecryU7DG6mbs-10">
          <mxGeometry relative="1" as="geometry" />
        </mxCell>
        <mxCell id="e3aWR5k-ecryU7DG6mbs-1" value="Start" style="rounded=0;whiteSpace=wrap;html=1;fillColor=#0050ef;fontColor=#ffffff;strokeColor=#001DBC;" vertex="1" parent="1">
          <mxGeometry x="450" y="90" width="120" height="60" as="geometry" />
        </mxCell>
        <mxCell id="e3aWR5k-ecryU7DG6mbs-13" value="" style="edgeStyle=orthogonalEdgeStyle;rounded=0;orthogonalLoop=1;jettySize=auto;html=1;" edge="1" parent="1" source="e3aWR5k-ecryU7DG6mbs-10" target="e3aWR5k-ecryU7DG6mbs-12">
          <mxGeometry relative="1" as="geometry" />
        </mxCell>
        <mxCell id="e3aWR5k-ecryU7DG6mbs-10" value="Generate a random&lt;div&gt;word&lt;/div&gt;" style="rounded=0;whiteSpace=wrap;html=1;fillColor=#0050ef;fontColor=#ffffff;strokeColor=#001DBC;" vertex="1" parent="1">
          <mxGeometry x="450" y="180" width="120" height="60" as="geometry" />
        </mxCell>
        <mxCell id="e3aWR5k-ecryU7DG6mbs-15" value="" style="edgeStyle=orthogonalEdgeStyle;rounded=0;orthogonalLoop=1;jettySize=auto;html=1;" edge="1" parent="1" source="e3aWR5k-ecryU7DG6mbs-12" target="e3aWR5k-ecryU7DG6mbs-14">
          <mxGeometry relative="1" as="geometry" />
        </mxCell>
        <mxCell id="e3aWR5k-ecryU7DG6mbs-12" value="get the amount of letters in the word" style="whiteSpace=wrap;html=1;rounded=0;fillColor=#0050ef;fontColor=#ffffff;strokeColor=#001DBC;" vertex="1" parent="1">
          <mxGeometry x="450" y="260" width="120" height="60" as="geometry" />
        </mxCell>
        <mxCell id="e3aWR5k-ecryU7DG6mbs-17" value="" style="edgeStyle=orthogonalEdgeStyle;rounded=0;orthogonalLoop=1;jettySize=auto;html=1;" edge="1" parent="1" source="e3aWR5k-ecryU7DG6mbs-14" target="e3aWR5k-ecryU7DG6mbs-16">
          <mxGeometry relative="1" as="geometry" />
        </mxCell>
        <mxCell id="e3aWR5k-ecryU7DG6mbs-14" value="create as many blanks as letters in the word" style="whiteSpace=wrap;html=1;rounded=0;fillColor=#0050ef;fontColor=#ffffff;strokeColor=#001DBC;" vertex="1" parent="1">
          <mxGeometry x="450" y="350" width="120" height="60" as="geometry" />
        </mxCell>
        <mxCell id="e3aWR5k-ecryU7DG6mbs-19" value="" style="edgeStyle=orthogonalEdgeStyle;rounded=0;orthogonalLoop=1;jettySize=auto;html=1;" edge="1" parent="1" source="e3aWR5k-ecryU7DG6mbs-16" target="e3aWR5k-ecryU7DG6mbs-18">
          <mxGeometry relative="1" as="geometry" />
        </mxCell>
        <mxCell id="e3aWR5k-ecryU7DG6mbs-16" value="ask user to guess a letter" style="whiteSpace=wrap;html=1;rounded=0;fillColor=#0050ef;fontColor=#ffffff;strokeColor=#001DBC;" vertex="1" parent="1">
          <mxGeometry x="450" y="490" width="120" height="60" as="geometry" />
        </mxCell>
        <mxCell id="e3aWR5k-ecryU7DG6mbs-21" value="" style="edgeStyle=orthogonalEdgeStyle;rounded=0;orthogonalLoop=1;jettySize=auto;html=1;fillColor=#e51400;strokeColor=#B20000;" edge="1" parent="1" source="e3aWR5k-ecryU7DG6mbs-18" target="e3aWR5k-ecryU7DG6mbs-20">
          <mxGeometry relative="1" as="geometry" />
        </mxCell>
        <mxCell id="e3aWR5k-ecryU7DG6mbs-23" value="" style="edgeStyle=orthogonalEdgeStyle;rounded=0;orthogonalLoop=1;jettySize=auto;html=1;fillColor=#60a917;strokeColor=#2D7600;" edge="1" parent="1" source="e3aWR5k-ecryU7DG6mbs-18" target="e3aWR5k-ecryU7DG6mbs-22">
          <mxGeometry relative="1" as="geometry" />
        </mxCell>
        <mxCell id="e3aWR5k-ecryU7DG6mbs-18" value="is the guessed letter in the word?" style="whiteSpace=wrap;html=1;rounded=0;fillColor=#0050ef;strokeColor=#001DBC;fontColor=#ffffff;" vertex="1" parent="1">
          <mxGeometry x="450" y="590" width="120" height="60" as="geometry" />
        </mxCell>
        <mxCell id="e3aWR5k-ecryU7DG6mbs-27" value="" style="edgeStyle=orthogonalEdgeStyle;rounded=0;orthogonalLoop=1;jettySize=auto;html=1;" edge="1" parent="1" source="e3aWR5k-ecryU7DG6mbs-20" target="e3aWR5k-ecryU7DG6mbs-26">
          <mxGeometry relative="1" as="geometry" />
        </mxCell>
        <mxCell id="e3aWR5k-ecryU7DG6mbs-20" value="remove a life" style="whiteSpace=wrap;html=1;rounded=0;fillColor=#e51400;strokeColor=#B20000;fontColor=#ffffff;" vertex="1" parent="1">
          <mxGeometry x="590" y="690" width="120" height="60" as="geometry" />
        </mxCell>
        <mxCell id="e3aWR5k-ecryU7DG6mbs-25" value="" style="edgeStyle=orthogonalEdgeStyle;rounded=0;orthogonalLoop=1;jettySize=auto;html=1;fillColor=#60a917;strokeColor=#2D7600;" edge="1" parent="1" source="e3aWR5k-ecryU7DG6mbs-22" target="e3aWR5k-ecryU7DG6mbs-24">
          <mxGeometry relative="1" as="geometry" />
        </mxCell>
        <mxCell id="e3aWR5k-ecryU7DG6mbs-22" value="replace blank with the letter" style="whiteSpace=wrap;html=1;rounded=0;fillColor=#60a917;strokeColor=#2D7600;fontColor=#ffffff;" vertex="1" parent="1">
          <mxGeometry x="290" y="690" width="120" height="60" as="geometry" />
        </mxCell>
        <mxCell id="e3aWR5k-ecryU7DG6mbs-29" value="" style="edgeStyle=orthogonalEdgeStyle;rounded=0;orthogonalLoop=1;jettySize=auto;html=1;fillColor=#60a917;strokeColor=#2D7600;" edge="1" parent="1" source="e3aWR5k-ecryU7DG6mbs-24" target="e3aWR5k-ecryU7DG6mbs-28">
          <mxGeometry relative="1" as="geometry" />
        </mxCell>
        <mxCell id="e3aWR5k-ecryU7DG6mbs-35" value="" style="edgeStyle=orthogonalEdgeStyle;rounded=0;orthogonalLoop=1;jettySize=auto;html=1;fillColor=#e51400;strokeColor=#B20000;" edge="1" parent="1" source="e3aWR5k-ecryU7DG6mbs-24" target="e3aWR5k-ecryU7DG6mbs-16">
          <mxGeometry relative="1" as="geometry">
            <mxPoint x="190" y="830" as="targetPoint" />
            <Array as="points">
              <mxPoint x="210" y="830" />
              <mxPoint x="210" y="520" />
            </Array>
          </mxGeometry>
        </mxCell>
        <mxCell id="e3aWR5k-ecryU7DG6mbs-24" value="Is the word complete?" style="whiteSpace=wrap;html=1;rounded=0;fillColor=#60a917;strokeColor=#2D7600;fontColor=#ffffff;" vertex="1" parent="1">
          <mxGeometry x="290" y="800" width="120" height="60" as="geometry" />
        </mxCell>
        <mxCell id="e3aWR5k-ecryU7DG6mbs-31" value="" style="edgeStyle=orthogonalEdgeStyle;rounded=0;orthogonalLoop=1;jettySize=auto;html=1;fillColor=#60a917;strokeColor=#2D7600;" edge="1" parent="1" source="e3aWR5k-ecryU7DG6mbs-26" target="e3aWR5k-ecryU7DG6mbs-28">
          <mxGeometry relative="1" as="geometry">
            <mxPoint x="650" y="940" as="targetPoint" />
          </mxGeometry>
        </mxCell>
        <mxCell id="e3aWR5k-ecryU7DG6mbs-33" value="" style="edgeStyle=orthogonalEdgeStyle;rounded=0;orthogonalLoop=1;jettySize=auto;html=1;fillColor=#e51400;strokeColor=#B20000;" edge="1" parent="1" source="e3aWR5k-ecryU7DG6mbs-26" target="e3aWR5k-ecryU7DG6mbs-16">
          <mxGeometry relative="1" as="geometry">
            <mxPoint x="810" y="830" as="targetPoint" />
            <Array as="points">
              <mxPoint x="780" y="830" />
              <mxPoint x="780" y="520" />
            </Array>
          </mxGeometry>
        </mxCell>
        <mxCell id="e3aWR5k-ecryU7DG6mbs-26" value="Are they out of lives?" style="whiteSpace=wrap;html=1;rounded=0;fillColor=#e51400;strokeColor=#B20000;fontColor=#ffffff;" vertex="1" parent="1">
          <mxGeometry x="590" y="800" width="120" height="60" as="geometry" />
        </mxCell>
        <mxCell id="e3aWR5k-ecryU7DG6mbs-28" value="Game Over" style="whiteSpace=wrap;html=1;rounded=0;fillColor=#60a917;strokeColor=#2D7600;fontColor=#ffffff;" vertex="1" parent="1">
          <mxGeometry x="440" y="940" width="120" height="60" as="geometry" />
        </mxCell>
        <mxCell id="e3aWR5k-ecryU7DG6mbs-36" value="&lt;span style=&quot;font-weight: normal;&quot;&gt;&lt;font style=&quot;font-size: 20px;&quot;&gt;Yes&lt;/font&gt;&lt;/span&gt;" style="text;strokeColor=#2D7600;fillColor=#60a917;html=1;fontSize=24;fontStyle=1;verticalAlign=middle;align=center;fontColor=#ffffff;" vertex="1" parent="1">
          <mxGeometry x="380" y="580" width="40" height="30" as="geometry" />
        </mxCell>
        <mxCell id="e3aWR5k-ecryU7DG6mbs-38" value="&lt;span style=&quot;font-weight: normal;&quot;&gt;&lt;font style=&quot;font-size: 20px;&quot;&gt;Yes&lt;/font&gt;&lt;/span&gt;" style="text;strokeColor=#2D7600;fillColor=#60a917;html=1;fontSize=24;fontStyle=1;verticalAlign=middle;align=center;fontColor=#ffffff;" vertex="1" parent="1">
          <mxGeometry x="425" y="790" width="40" height="30" as="geometry" />
        </mxCell>
        <mxCell id="e3aWR5k-ecryU7DG6mbs-39" value="&lt;span style=&quot;font-weight: normal;&quot;&gt;&lt;font style=&quot;font-size: 20px;&quot;&gt;Yes&lt;/font&gt;&lt;/span&gt;" style="text;strokeColor=#2D7600;fillColor=#60a917;html=1;fontSize=24;fontStyle=1;verticalAlign=middle;align=center;fontColor=#ffffff;" vertex="1" parent="1">
          <mxGeometry x="540" y="790" width="40" height="30" as="geometry" />
        </mxCell>
        <mxCell id="e3aWR5k-ecryU7DG6mbs-40" value="&lt;span style=&quot;font-weight: normal;&quot;&gt;&lt;font style=&quot;font-size: 20px;&quot;&gt;No&lt;/font&gt;&lt;/span&gt;" style="text;strokeColor=#B20000;fillColor=#e51400;html=1;fontSize=24;fontStyle=1;verticalAlign=middle;align=center;fontColor=#ffffff;" vertex="1" parent="1">
          <mxGeometry x="720" y="790" width="40" height="30" as="geometry" />
        </mxCell>
        <mxCell id="e3aWR5k-ecryU7DG6mbs-41" value="&lt;span style=&quot;font-weight: normal;&quot;&gt;&lt;font style=&quot;font-size: 20px;&quot;&gt;No&lt;/font&gt;&lt;/span&gt;" style="text;strokeColor=#B20000;fillColor=#e51400;html=1;fontSize=24;fontStyle=1;verticalAlign=middle;align=center;fontColor=#ffffff;" vertex="1" parent="1">
          <mxGeometry x="230" y="790" width="40" height="30" as="geometry" />
        </mxCell>
        <mxCell id="e3aWR5k-ecryU7DG6mbs-42" value="&lt;span style=&quot;font-weight: normal;&quot;&gt;&lt;font style=&quot;font-size: 20px;&quot;&gt;No&lt;/font&gt;&lt;/span&gt;" style="text;strokeColor=#B20000;fillColor=#e51400;html=1;fontSize=24;fontStyle=1;verticalAlign=middle;align=center;fontColor=#ffffff;" vertex="1" parent="1">
          <mxGeometry x="590" y="580" width="40" height="30" as="geometry" />
        </mxCell>
      </root>
    </mxGraphModel>
  </diagram>
</mxfile>
